0
SECTION
2
HEADER
9
$INSUNITS
70
4
9
$ACADVER
1
AC1014
9
$HANDSEED
5
FFFF
0
ENDSEC
0
SECTION
2
TABLES
0
TABLE
2
VPORT
5
8
100
AcDbSymbolTable
0
ENDTAB
0
TABLE
2
LTYPE
5
5
100
AcDbSymbolTable
0
LTYPE
5
14
100
AcDbSymbolTableRecord
100
AcDbLinetypeTableRecord
2
BYBLOCK
70
0
0
LTYPE
5
15
100
AcDbSymbolTableRecord
100
AcDbLinetypeTableRecord
2
BYLAYER
70
0
0
LTYPE
5
16
100
AcDbSymbolTableRecord
100
AcDbLinetypeTableRecord
2
DASHED
70
0
3
Dashed __ __ __ __ __ __ __ __ __ __ __ __ __ _
72
65
73
2
40
0.75
49
0.5
74
0
49
-0.25
74
0
0
ENDTAB
0
TABLE
2
LAYER
5
2
100
AcDbSymbolTable
70
2
0
LAYER
5
50
100
AcDbSymbolTableRecord
100
AcDbLayerTableRecord
2
0
70
0
62
7
6
CONTINUOUS
0
ENDTAB
0
TABLE
2
STYLE
5
3
100
AcDbSymbolTable
70
1
0
STYLE
5
11
100
AcDbSymbolTableRecord
100
AcDbTextStyleTableRecord
2
STANDARD
70
0
0
ENDTAB
0
TABLE
2
VIEW
5
6
100
AcDbSymbolTable
70
0
0
ENDTAB
0
TABLE
2
UCS
5
7
100
AcDbSymbolTable
70
0
0
ENDTAB
0
TABLE
2
APPID
5
9
100
AcDbSymbolTable
70
2
0
APPID
5
12
100
AcDbSymbolTableRecord
100
AcDbRegAppTableRecord
2
ACAD
70
0
0
ENDTAB
0
TABLE
2
DIMSTYLE
5
A
100
AcDbSymbolTable
70
1
0
ENDTAB
0
TABLE
2
BLOCK_RECORD
5
1
100
AcDbSymbolTable
70
1
0
BLOCK_RECORD
5
1F
100
AcDbSymbolTableRecord
100
AcDbBlockTableRecord
2
*MODEL_SPACE
0
BLOCK_RECORD
5
1B
100
AcDbSymbolTableRecord
100
AcDbBlockTableRecord
2
*PAPER_SPACE
0
ENDTAB
0
ENDSEC
0
SECTION
2
BLOCKS
0
BLOCK
5
20
100
AcDbEntity
100
AcDbBlockBegin
2
*MODEL_SPACE
0
ENDBLK
5
21
100
AcDbEntity
100
AcDbBlockEnd
0
BLOCK
5
1C
100
AcDbEntity
100
AcDbBlockBegin
2
*PAPER_SPACE
0
ENDBLK
5
1D
100
AcDbEntity
100
AcDbBlockEnd
0
ENDSEC
0
SECTION
2
ENTITIES
0
LWPOLYLINE
5
100
100
AcDbEntity
8
0
100
AcDbPolyline
90
12
70
1
43
0.0
10
-140.45785790636299
20
78.608954474713514
10
-132.08859322774313
20
82.480189692053273
42
-0.22007542358721749
10
-127.9114067722561
20
82.480189692052917
10
-119.54214209363705
20
78.608954474713386
42
-0.31699701329417163
10
-105.19114211871083
20
53.752293378721191
10
-106.02318641577972
20
44.568679947371479
42
-0.22007542358721352
10
-108.11177964352305
20
40.951130360575583
10
-115.64900002507385
20
35.638752146564904
42
-0.3169970132941658
10
-144.35099997492611
20
35.638752146564912
10
-151.88822035647701
20
40.951130360575412
42
-0.22007542358721155
10
-153.97681358422039
20
44.568679947371379
10
-154.80885788128927
20
53.75229337872117
42
-0.31699701329417118
0
CIRCLE
5
101
100
AcDbEntity
8
0
100
AcDbCircle
10
-108.09138300473802
20
34.091383004737814
30
0
40
2.3500000000000001
210
1.9352883722468243e-48
220
1.9352883722468225e-48
230
1
0
CIRCLE
5
102
100
AcDbEntity
8
0
100
AcDbCircle
10
-99.016536712462596
20
55.999999999999908
30
0
40
3.1749999999999994
210
-4.036239509836044e-78
220
-2.7369110631344089e-48
230
1
0
CIRCLE
5
103
100
AcDbEntity
8
0
100
AcDbCircle
10
-160.98346328753703
20
55.999999999999908
30
0
40
3.1749999999999994
210
-3.3517493730185489e-64
220
-2.7369110631344089e-48
230
1
0
CIRCLE
5
104
100
AcDbEntity
8
0
100
AcDbCircle
10
-151.90861699526204
20
77.908616995262022
30
0
40
2.3500000000000001
210
1.9352883722468243e-48
220
1.9352883722468225e-48
230
1
0
LWPOLYLINE
5
105
100
AcDbEntity
8
0
100
AcDbPolyline
90
4
70
1
43
0.0
10
-153.77498685593713
20
85.000000000000171
42
0.47327631531250003
10
-153.77498685593787
20
27.00000000000021
10
-106.225013144062
20
27.000000000000011
42
0.47327631531250075
10
-106.22501314406286
20
85.000000000000199
0
CIRCLE
5
106
100
AcDbEntity
8
0
100
AcDbCircle
10
-151.90915024160805
20
34.091553112188734
30
0
40
2.5999999999999979
210
-1.7272337110188889e-77
220
8.7310930719155331e-107
230
1
0
CIRCLE
5
107
100
AcDbEntity
8
0
100
AcDbCircle
10
-108.09142850382108
20
77.90861001023832
30
0
40
2.5999999999999979
210
-1.7272337110188889e-77
220
8.7310930719155331e-107
230
1
0
CIRCLE
5
108
100
AcDbEntity
8
0
100
AcDbCircle
10
-129.99999999999997
20
55.999999999999936
30
0
40
16
210
0
220
0
230
1
0
CIRCLE
5
109
100
AcDbEntity
8
0
100
AcDbCircle
10
-129.99999999999997
20
55.999999999999936
30
0
40
20.250000000000007
210
0
220
0
230
1
0
ENDSEC
0
SECTION
2
OBJECTS
0
DICTIONARY
5
C
100
AcDbDictionary
3
ACAD_GROUP
350
D
3
ACAD_MLINESTYLE
350
17
0
DICTIONARY
5
D
100
AcDbDictionary
0
DICTIONARY
5
1A
330
C
100
AcDbDictionary
0
DICTIONARY
5
17
100
AcDbDictionary
0
ENDSEC
0
EOF
